<?xml version="1.0" encoding="utf-8"?>
<svg viewBox="0 0 350 100" xmlns="http://www.w3.org/2000/svg">
  <path d="M 37.712 25.214 C 35.432 25.214 33.669 26.071 32.422 27.784 C 31.169 29.497 30.542 31.884 30.542 34.944 C 30.542 41.311 32.932 44.494 37.712 44.494 C 39.719 44.494 42.149 43.994 45.002 42.994 L 45.002 48.074 C 42.655 49.047 40.039 49.534 37.152 49.534 C 32.999 49.534 29.822 48.274 27.622 45.754 C 25.415 43.234 24.312 39.617 24.312 34.904 C 24.312 31.937 24.855 29.337 25.942 27.104 C 27.022 24.871 28.572 23.157 30.592 21.964 C 32.619 20.777 34.992 20.184 37.712 20.184 C 40.485 20.184 43.272 20.854 46.072 22.194 L 44.122 27.114 C 43.055 26.607 41.982 26.164 40.902 25.784 C 39.822 25.404 38.759 25.214 37.712 25.214 ZM 74.47 20.594 L 74.47 49.144 L 68.44 49.144 L 68.44 36.824 L 57.13 36.824 L 57.13 49.144 L 51.07 49.144 L 51.07 20.594 L 57.13 20.594 L 57.13 31.784 L 68.44 31.784 L 68.44 20.594 L 74.47 20.594 ZM 87.736 49.144 L 81.676 49.144 L 81.676 20.594 L 87.736 20.594 L 87.736 49.144 ZM 107.048 25.214 C 104.768 25.214 103.005 26.071 101.758 27.784 C 100.505 29.497 99.878 31.884 99.878 34.944 C 99.878 41.311 102.268 44.494 107.048 44.494 C 109.055 44.494 111.485 43.994 114.338 42.994 L 114.338 48.074 C 111.991 49.047 109.375 49.534 106.488 49.534 C 102.335 49.534 99.158 48.274 96.958 45.754 C 94.751 43.234 93.648 39.617 93.648 34.904 C 93.648 31.937 94.191 29.337 95.278 27.104 C 96.358 24.871 97.908 23.157 99.928 21.964 C 101.955 20.777 104.328 20.184 107.048 20.184 C 109.821 20.184 112.608 20.854 115.408 22.194 L 113.458 27.114 C 112.391 26.607 111.318 26.164 110.238 25.784 C 109.158 25.404 108.095 25.214 107.048 25.214 ZM 126.466 49.144 L 120.406 49.144 L 120.406 20.594 L 126.466 20.594 L 126.466 49.144 ZM 159.568 34.824 C 159.568 39.551 158.398 43.184 156.058 45.724 C 153.712 48.264 150.352 49.534 145.978 49.534 C 141.605 49.534 138.245 48.264 135.898 45.724 C 133.552 43.184 132.378 39.537 132.378 34.784 C 132.378 30.037 133.555 26.411 135.908 23.904 C 138.262 21.397 141.632 20.144 146.018 20.144 C 150.405 20.144 153.762 21.407 156.088 23.934 C 158.408 26.454 159.568 30.084 159.568 34.824 Z M 138.728 34.824 C 138.728 38.017 139.335 40.421 140.548 42.034 C 141.755 43.647 143.565 44.454 145.978 44.454 C 150.805 44.454 153.218 41.244 153.218 34.824 C 153.218 28.397 150.818 25.184 146.018 25.184 C 143.605 25.184 141.788 25.994 140.568 27.614 C 139.342 29.234 138.728 31.637 138.728 34.824 ZM 188.005 25.214 C 185.725 25.214 183.962 26.071 182.715 27.784 C 181.462 29.497 180.835 31.884 180.835 34.944 C 180.835 41.311 183.225 44.494 188.005 44.494 C 190.012 44.494 192.442 43.994 195.295 42.994 L 195.295 48.074 C 192.948 49.047 190.332 49.534 187.445 49.534 C 183.292 49.534 180.115 48.274 177.915 45.754 C 175.708 43.234 174.605 39.617 174.605 34.904 C 174.605 31.937 175.148 29.337 176.235 27.104 C 177.315 24.871 178.865 23.157 180.885 21.964 C 182.912 20.777 185.285 20.184 188.005 20.184 C 190.778 20.184 193.565 20.854 196.365 22.194 L 194.415 27.114 C 193.348 26.607 192.275 26.164 191.195 25.784 C 190.115 25.404 189.052 25.214 188.005 25.214 ZM 227.283 34.824 C 227.283 39.551 226.113 43.184 223.773 45.724 C 221.427 48.264 218.067 49.534 213.693 49.534 C 209.32 49.534 205.96 48.264 203.613 45.724 C 201.267 43.184 200.093 39.537 200.093 34.784 C 200.093 30.037 201.27 26.411 203.623 23.904 C 205.977 21.397 209.347 20.144 213.733 20.144 C 218.12 20.144 221.477 21.407 223.803 23.934 C 226.123 26.454 227.283 30.084 227.283 34.824 Z M 206.443 34.824 C 206.443 38.017 207.05 40.421 208.263 42.034 C 209.47 43.647 211.28 44.454 213.693 44.454 C 218.52 44.454 220.933 41.244 220.933 34.824 C 220.933 28.397 218.533 25.184 213.733 25.184 C 211.32 25.184 209.503 25.994 208.283 27.614 C 207.057 29.234 206.443 31.637 206.443 34.824 ZM 256.899 34.594 C 256.899 39.294 255.559 42.894 252.879 45.394 C 250.206 47.894 246.343 49.144 241.289 49.144 L 233.199 49.144 L 233.199 20.594 L 242.169 20.594 C 246.829 20.594 250.449 21.824 253.029 24.284 C 255.609 26.744 256.899 30.181 256.899 34.594 Z M 250.609 34.754 C 250.609 28.621 247.899 25.554 242.479 25.554 L 239.259 25.554 L 239.259 44.144 L 241.859 44.144 C 247.693 44.144 250.609 41.014 250.609 34.754 ZM 268.869 49.144 L 262.809 49.144 L 262.809 20.594 L 268.869 20.594 L 268.869 49.144 ZM 301.391 20.594 L 301.391 49.144 L 293.691 49.144 L 281.271 27.544 L 281.091 27.544 C 281.337 31.357 281.461 34.077 281.461 35.704 L 281.461 49.144 L 276.051 49.144 L 276.051 20.594 L 283.691 20.594 L 296.091 41.974 L 296.231 41.974 C 296.037 38.267 295.941 35.644 295.941 34.104 L 295.941 20.594 L 301.391 20.594 ZM 319.41 38.144 L 319.41 33.104 L 330.74 33.104 L 330.74 47.914 C 328.907 48.514 327.18 48.934 325.56 49.174 C 323.934 49.414 322.277 49.534 320.59 49.534 C 316.277 49.534 312.984 48.267 310.71 45.734 C 308.437 43.201 307.3 39.564 307.3 34.824 C 307.3 30.217 308.62 26.624 311.26 24.044 C 313.894 21.471 317.55 20.184 322.23 20.184 C 325.157 20.184 327.98 20.767 330.7 21.934 L 328.69 26.784 C 326.61 25.737 324.444 25.214 322.19 25.214 C 319.57 25.214 317.474 26.094 315.9 27.854 C 314.32 29.614 313.53 31.977 313.53 34.944 C 313.53 38.044 314.167 40.411 315.44 42.044 C 316.707 43.677 318.554 44.494 320.98 44.494 C 322.24 44.494 323.52 44.364 324.82 44.104 L 324.82 38.144 L 319.41 38.144 Z" transform="matrix(1, 0, 0, 1, 0, 0)" style="fill: rgb(255, 255, 255); white-space: pre;"/>
  <path d="M 83.657 81.263 L 81.257 81.263 L 81.257 70.733 L 83.547 70.733 C 84.327 70.733 84.944 70.853 85.397 71.093 C 85.85 71.326 86.174 71.683 86.367 72.163 C 86.567 72.636 86.667 73.23 86.667 73.943 L 86.667 77.813 C 86.667 78.56 86.567 79.19 86.367 79.703 C 86.174 80.216 85.86 80.603 85.427 80.863 C 84.987 81.13 84.397 81.263 83.657 81.263 Z M 82.727 71.823 L 82.727 80.213 L 83.557 80.213 C 84.097 80.213 84.477 80.106 84.697 79.893 C 84.924 79.686 85.06 79.383 85.107 78.983 C 85.16 78.59 85.187 78.11 85.187 77.543 L 85.187 74.123 C 85.187 73.576 85.15 73.136 85.077 72.803 C 85.01 72.463 84.86 72.216 84.627 72.063 C 84.394 71.903 84.024 71.823 83.517 71.823 L 82.727 71.823 ZM 89.468 81.263 L 88.078 81.263 L 88.078 73.753 L 89.468 73.753 L 89.468 81.263 Z M 89.468 72.633 L 88.078 72.633 L 88.078 71.173 L 89.468 71.173 L 89.468 72.633 ZM 92.395 81.263 L 91.005 81.263 L 91.005 73.753 L 92.395 73.753 L 92.395 74.813 C 92.675 74.353 92.952 74.046 93.225 73.893 C 93.505 73.733 93.785 73.653 94.065 73.653 C 94.098 73.653 94.128 73.653 94.155 73.653 C 94.188 73.653 94.232 73.66 94.285 73.673 L 94.285 75.203 C 94.178 75.163 94.058 75.126 93.925 75.093 C 93.792 75.066 93.655 75.053 93.515 75.053 C 93.302 75.053 93.105 75.103 92.925 75.203 C 92.745 75.296 92.568 75.486 92.395 75.773 L 92.395 81.263 ZM 97.138 81.363 C 96.751 81.363 96.438 81.29 96.198 81.143 C 95.958 80.996 95.785 80.79 95.678 80.523 C 95.571 80.256 95.518 79.94 95.518 79.573 L 95.518 74.673 L 94.728 74.673 L 94.728 73.753 L 95.518 73.753 L 95.518 71.553 L 96.908 71.553 L 96.908 73.753 L 98.118 73.753 L 98.118 74.673 L 96.908 74.673 L 96.908 79.483 C 96.908 79.776 96.955 79.986 97.048 80.113 C 97.148 80.24 97.331 80.303 97.598 80.303 C 97.665 80.303 97.745 80.296 97.838 80.283 C 97.931 80.276 98.021 80.27 98.108 80.263 L 98.108 81.293 C 97.935 81.32 97.775 81.336 97.628 81.343 C 97.475 81.356 97.311 81.363 97.138 81.363 ZM 99.192 83.153 L 99.032 83.153 L 99.032 82.083 C 99.365 82.083 99.632 82.066 99.832 82.033 C 100.032 82.006 100.175 81.95 100.262 81.863 C 100.349 81.783 100.392 81.67 100.392 81.523 C 100.392 81.443 100.362 81.27 100.302 81.003 C 100.242 80.736 100.175 80.45 100.102 80.143 L 98.602 73.753 L 100.002 73.753 L 101.012 79.363 L 101.992 73.753 L 103.392 73.753 L 101.602 81.683 C 101.522 82.043 101.379 82.33 101.172 82.543 C 100.965 82.756 100.699 82.91 100.372 83.003 C 100.045 83.103 99.652 83.153 99.192 83.153 ZM 109.275 81.363 C 108.655 81.363 108.188 81.24 107.875 80.993 C 107.555 80.746 107.342 80.4 107.235 79.953 C 107.128 79.5 107.075 78.973 107.075 78.373 L 107.075 76.643 C 107.075 76.016 107.132 75.48 107.245 75.033 C 107.358 74.586 107.572 74.243 107.885 74.003 C 108.205 73.763 108.668 73.643 109.275 73.643 C 109.822 73.643 110.242 73.733 110.535 73.913 C 110.835 74.086 111.042 74.35 111.155 74.703 C 111.268 75.056 111.325 75.493 111.325 76.013 L 111.325 76.453 L 110.065 76.453 L 110.065 75.993 C 110.065 75.666 110.042 75.406 109.995 75.213 C 109.955 75.026 109.878 74.89 109.765 74.803 C 109.652 74.716 109.492 74.673 109.285 74.673 C 109.058 74.673 108.885 74.723 108.765 74.823 C 108.645 74.93 108.565 75.106 108.525 75.353 C 108.485 75.6 108.465 75.936 108.465 76.363 L 108.465 78.723 C 108.465 79.37 108.525 79.8 108.645 80.013 C 108.765 80.233 108.982 80.343 109.295 80.343 C 109.528 80.343 109.702 80.286 109.815 80.173 C 109.922 80.066 109.988 79.913 110.015 79.713 C 110.048 79.513 110.065 79.29 110.065 79.043 L 110.065 78.433 L 111.325 78.433 L 111.325 78.953 C 111.325 79.453 111.265 79.886 111.145 80.253 C 111.032 80.613 110.825 80.89 110.525 81.083 C 110.225 81.27 109.808 81.363 109.275 81.363 ZM 114.078 81.263 L 112.688 81.263 L 112.688 70.733 L 114.078 70.733 L 114.078 81.263 ZM 117.615 81.363 C 117.028 81.363 116.575 81.25 116.255 81.023 C 115.935 80.79 115.712 80.453 115.585 80.013 C 115.458 79.566 115.395 79.016 115.395 78.363 L 115.395 76.643 C 115.395 75.976 115.458 75.423 115.585 74.983 C 115.718 74.543 115.948 74.21 116.275 73.983 C 116.595 73.756 117.042 73.643 117.615 73.643 C 118.248 73.643 118.715 73.773 119.015 74.033 C 119.315 74.293 119.512 74.67 119.605 75.163 C 119.698 75.65 119.745 76.236 119.745 76.923 L 119.745 77.533 L 116.785 77.533 L 116.785 79.043 C 116.785 79.343 116.812 79.59 116.865 79.783 C 116.925 79.97 117.018 80.11 117.145 80.203 C 117.272 80.296 117.435 80.343 117.635 80.343 C 117.842 80.343 117.998 80.293 118.105 80.193 C 118.212 80.093 118.285 79.95 118.325 79.763 C 118.365 79.576 118.385 79.356 118.385 79.103 L 118.385 78.653 L 119.735 78.653 L 119.735 78.933 C 119.735 79.686 119.575 80.28 119.255 80.713 C 118.935 81.146 118.388 81.363 117.615 81.363 Z M 116.785 76.373 L 116.785 76.773 L 118.385 76.773 L 118.385 76.103 C 118.385 75.79 118.368 75.526 118.335 75.313 C 118.302 75.1 118.228 74.94 118.115 74.833 C 118.008 74.726 117.838 74.673 117.605 74.673 C 117.378 74.673 117.208 74.723 117.095 74.823 C 116.975 74.93 116.895 75.106 116.855 75.353 C 116.808 75.6 116.785 75.94 116.785 76.373 ZM 122.358 81.363 C 122.065 81.363 121.805 81.28 121.578 81.113 C 121.358 80.946 121.181 80.73 121.048 80.463 C 120.921 80.196 120.858 79.916 120.858 79.623 C 120.858 79.156 120.935 78.763 121.088 78.443 C 121.241 78.123 121.455 77.853 121.728 77.633 C 122.001 77.406 122.318 77.213 122.678 77.053 C 123.038 76.886 123.418 76.726 123.818 76.573 L 123.818 76.033 C 123.818 75.733 123.801 75.483 123.768 75.283 C 123.735 75.083 123.661 74.933 123.548 74.833 C 123.441 74.733 123.281 74.683 123.068 74.683 C 122.875 74.683 122.718 74.726 122.598 74.813 C 122.485 74.9 122.401 75.023 122.348 75.183 C 122.295 75.343 122.268 75.533 122.268 75.753 L 122.268 76.123 L 120.898 76.073 C 120.911 75.24 121.101 74.626 121.468 74.233 C 121.828 73.84 122.391 73.643 123.158 73.643 C 123.905 73.643 124.431 73.846 124.738 74.253 C 125.051 74.66 125.208 75.25 125.208 76.023 L 125.208 79.453 C 125.208 79.686 125.215 79.913 125.228 80.133 C 125.241 80.346 125.258 80.546 125.278 80.733 C 125.305 80.92 125.325 81.096 125.338 81.263 L 124.068 81.263 C 124.041 81.123 124.008 80.946 123.968 80.733 C 123.928 80.52 123.901 80.326 123.888 80.153 C 123.801 80.453 123.631 80.73 123.378 80.983 C 123.131 81.236 122.791 81.363 122.358 81.363 Z M 122.908 80.173 C 123.048 80.173 123.178 80.133 123.298 80.053 C 123.418 79.973 123.528 79.883 123.628 79.783 C 123.721 79.683 123.785 79.603 123.818 79.543 L 123.818 77.413 C 123.605 77.533 123.401 77.656 123.208 77.783 C 123.015 77.903 122.848 78.03 122.708 78.163 C 122.561 78.296 122.448 78.446 122.368 78.613 C 122.288 78.786 122.248 78.98 122.248 79.193 C 122.248 79.5 122.305 79.74 122.418 79.913 C 122.531 80.086 122.695 80.173 122.908 80.173 ZM 127.936 81.263 L 126.546 81.263 L 126.546 73.753 L 127.936 73.753 L 127.936 74.493 C 128.189 74.26 128.469 74.06 128.776 73.893 C 129.076 73.726 129.409 73.643 129.776 73.643 C 130.076 73.643 130.306 73.723 130.466 73.883 C 130.626 74.036 130.739 74.23 130.806 74.463 C 130.873 74.696 130.906 74.936 130.906 75.183 L 130.906 81.263 L 129.516 81.263 L 129.516 75.583 C 129.516 75.316 129.476 75.106 129.396 74.953 C 129.316 74.806 129.156 74.733 128.916 74.733 C 128.756 74.733 128.593 74.78 128.426 74.873 C 128.259 74.966 128.096 75.076 127.936 75.203 L 127.936 81.263 ZM 137.29 81.363 C 136.67 81.363 136.203 81.24 135.89 80.993 C 135.57 80.746 135.357 80.4 135.25 79.953 C 135.143 79.5 135.09 78.973 135.09 78.373 L 135.09 76.643 C 135.09 76.016 135.147 75.48 135.26 75.033 C 135.373 74.586 135.587 74.243 135.9 74.003 C 136.22 73.763 136.683 73.643 137.29 73.643 C 137.837 73.643 138.257 73.733 138.55 73.913 C 138.85 74.086 139.057 74.35 139.17 74.703 C 139.283 75.056 139.34 75.493 139.34 76.013 L 139.34 76.453 L 138.08 76.453 L 138.08 75.993 C 138.08 75.666 138.057 75.406 138.01 75.213 C 137.97 75.026 137.893 74.89 137.78 74.803 C 137.667 74.716 137.507 74.673 137.3 74.673 C 137.073 74.673 136.9 74.723 136.78 74.823 C 136.66 74.93 136.58 75.106 136.54 75.353 C 136.5 75.6 136.48 75.936 136.48 76.363 L 136.48 78.723 C 136.48 79.37 136.54 79.8 136.66 80.013 C 136.78 80.233 136.997 80.343 137.31 80.343 C 137.543 80.343 137.717 80.286 137.83 80.173 C 137.937 80.066 138.003 79.913 138.03 79.713 C 138.063 79.513 138.08 79.29 138.08 79.043 L 138.08 78.433 L 139.34 78.433 L 139.34 78.953 C 139.34 79.453 139.28 79.886 139.16 80.253 C 139.047 80.613 138.84 80.89 138.54 81.083 C 138.24 81.27 137.823 81.363 137.29 81.363 ZM 142.643 81.363 C 142.09 81.363 141.653 81.253 141.333 81.033 C 141.013 80.806 140.783 80.483 140.643 80.063 C 140.51 79.65 140.443 79.16 140.443 78.593 L 140.443 76.413 C 140.443 75.853 140.51 75.363 140.643 74.943 C 140.783 74.53 141.013 74.21 141.333 73.983 C 141.653 73.756 142.09 73.643 142.643 73.643 C 143.196 73.643 143.633 73.756 143.953 73.983 C 144.266 74.21 144.49 74.53 144.623 74.943 C 144.756 75.363 144.823 75.853 144.823 76.413 L 144.823 78.593 C 144.823 79.16 144.756 79.65 144.623 80.063 C 144.49 80.483 144.266 80.806 143.953 81.033 C 143.633 81.253 143.196 81.363 142.643 81.363 Z M 142.643 80.343 C 142.91 80.343 143.096 80.263 143.203 80.103 C 143.316 79.95 143.383 79.746 143.403 79.493 C 143.423 79.233 143.433 78.966 143.433 78.693 L 143.433 76.333 C 143.433 76.046 143.423 75.78 143.403 75.533 C 143.383 75.28 143.316 75.073 143.203 74.913 C 143.096 74.753 142.91 74.673 142.643 74.673 C 142.376 74.673 142.186 74.753 142.073 74.913 C 141.96 75.073 141.893 75.28 141.873 75.533 C 141.846 75.78 141.833 76.046 141.833 76.333 L 141.833 78.693 C 141.833 78.966 141.846 79.233 141.873 79.493 C 141.893 79.746 141.96 79.95 142.073 80.103 C 142.186 80.263 142.376 80.343 142.643 80.343 ZM 147.838 81.363 C 147.211 81.363 146.741 81.133 146.428 80.673 C 146.115 80.206 145.958 79.42 145.958 78.313 L 145.958 76.853 C 145.958 76.28 146.005 75.75 146.098 75.263 C 146.198 74.776 146.378 74.383 146.638 74.083 C 146.905 73.79 147.295 73.643 147.808 73.643 C 148.055 73.643 148.281 73.7 148.488 73.813 C 148.701 73.926 148.888 74.066 149.048 74.233 L 149.048 70.733 L 150.438 70.733 L 150.438 81.263 L 149.048 81.263 L 149.048 80.783 C 148.888 80.956 148.708 81.096 148.508 81.203 C 148.315 81.31 148.091 81.363 147.838 81.363 Z M 148.198 80.273 C 148.325 80.273 148.461 80.25 148.608 80.203 C 148.755 80.156 148.901 80.086 149.048 79.993 L 149.048 75.063 C 148.928 74.976 148.795 74.9 148.648 74.833 C 148.501 74.766 148.341 74.733 148.168 74.733 C 147.848 74.733 147.631 74.89 147.518 75.203 C 147.405 75.51 147.348 75.88 147.348 76.313 L 147.348 78.433 C 147.348 78.78 147.368 79.093 147.408 79.373 C 147.448 79.653 147.528 79.873 147.648 80.033 C 147.768 80.193 147.951 80.273 148.198 80.273 ZM 153.924 81.363 C 153.337 81.363 152.884 81.25 152.564 81.023 C 152.244 80.79 152.021 80.453 151.894 80.013 C 151.767 79.566 151.704 79.016 151.704 78.363 L 151.704 76.643 C 151.704 75.976 151.767 75.423 151.894 74.983 C 152.027 74.543 152.257 74.21 152.584 73.983 C 152.904 73.756 153.351 73.643 153.924 73.643 C 154.557 73.643 155.024 73.773 155.324 74.033 C 155.624 74.293 155.821 74.67 155.914 75.163 C 156.007 75.65 156.054 76.236 156.054 76.923 L 156.054 77.533 L 153.094 77.533 L 153.094 79.043 C 153.094 79.343 153.121 79.59 153.174 79.783 C 153.234 79.97 153.327 80.11 153.454 80.203 C 153.581 80.296 153.744 80.343 153.944 80.343 C 154.151 80.343 154.307 80.293 154.414 80.193 C 154.521 80.093 154.594 79.95 154.634 79.763 C 154.674 79.576 154.694 79.356 154.694 79.103 L 154.694 78.653 L 156.044 78.653 L 156.044 78.933 C 156.044 79.686 155.884 80.28 155.564 80.713 C 155.244 81.146 154.697 81.363 153.924 81.363 Z M 153.094 76.373 L 153.094 76.773 L 154.694 76.773 L 154.694 76.103 C 154.694 75.79 154.677 75.526 154.644 75.313 C 154.611 75.1 154.537 74.94 154.424 74.833 C 154.317 74.726 154.147 74.673 153.914 74.673 C 153.687 74.673 153.517 74.723 153.404 74.823 C 153.284 74.93 153.204 75.106 153.164 75.353 C 153.117 75.6 153.094 75.94 153.094 76.373 ZM 158.647 81.263 L 157.257 81.263 L 157.257 79.713 L 158.647 79.713 L 158.647 81.263 ZM 165.498 81.383 C 164.751 81.383 164.171 81.226 163.758 80.913 C 163.351 80.6 163.065 80.18 162.898 79.653 C 162.738 79.12 162.658 78.53 162.658 77.883 L 162.658 74.163 C 162.658 73.456 162.738 72.836 162.898 72.303 C 163.065 71.776 163.351 71.366 163.758 71.073 C 164.171 70.786 164.751 70.643 165.498 70.643 C 166.158 70.643 166.678 70.763 167.058 71.003 C 167.445 71.25 167.725 71.596 167.898 72.043 C 168.065 72.496 168.148 73.04 168.148 73.673 L 168.148 74.503 L 166.758 74.503 L 166.758 73.763 C 166.758 73.37 166.738 73.026 166.698 72.733 C 166.658 72.433 166.551 72.2 166.378 72.033 C 166.205 71.866 165.915 71.783 165.508 71.783 C 165.095 71.783 164.791 71.873 164.598 72.053 C 164.411 72.233 164.288 72.483 164.228 72.803 C 164.175 73.13 164.148 73.51 164.148 73.943 L 164.148 78.113 C 164.148 78.646 164.191 79.066 164.278 79.373 C 164.365 79.68 164.508 79.896 164.708 80.023 C 164.901 80.156 165.168 80.223 165.508 80.223 C 165.908 80.223 166.195 80.133 166.368 79.953 C 166.541 79.78 166.648 79.536 166.688 79.223 C 166.735 78.91 166.758 78.546 166.758 78.133 L 166.758 77.353 L 168.148 77.353 L 168.148 78.133 C 168.148 78.773 168.071 79.336 167.918 79.823 C 167.758 80.316 167.488 80.7 167.108 80.973 C 166.728 81.246 166.191 81.383 165.498 81.383 ZM 170.863 81.263 L 169.473 81.263 L 169.473 73.753 L 170.863 73.753 L 170.863 74.813 C 171.143 74.353 171.42 74.046 171.693 73.893 C 171.973 73.733 172.253 73.653 172.533 73.653 C 172.566 73.653 172.596 73.653 172.623 73.653 C 172.656 73.653 172.7 73.66 172.753 73.673 L 172.753 75.203 C 172.646 75.163 172.526 75.126 172.393 75.093 C 172.26 75.066 172.123 75.053 171.983 75.053 C 171.77 75.053 171.573 75.103 171.393 75.203 C 171.213 75.296 171.036 75.486 170.863 75.773 L 170.863 81.263 ZM 175.686 81.363 C 175.099 81.363 174.646 81.25 174.326 81.023 C 174.006 80.79 173.783 80.453 173.656 80.013 C 173.529 79.566 173.466 79.016 173.466 78.363 L 173.466 76.643 C 173.466 75.976 173.529 75.423 173.656 74.983 C 173.789 74.543 174.019 74.21 174.346 73.983 C 174.666 73.756 175.113 73.643 175.686 73.643 C 176.319 73.643 176.786 73.773 177.086 74.033 C 177.386 74.293 177.583 74.67 177.676 75.163 C 177.769 75.65 177.816 76.236 177.816 76.923 L 177.816 77.533 L 174.856 77.533 L 174.856 79.043 C 174.856 79.343 174.883 79.59 174.936 79.783 C 174.996 79.97 175.089 80.11 175.216 80.203 C 175.343 80.296 175.506 80.343 175.706 80.343 C 175.913 80.343 176.069 80.293 176.176 80.193 C 176.283 80.093 176.356 79.95 176.396 79.763 C 176.436 79.576 176.456 79.356 176.456 79.103 L 176.456 78.653 L 177.806 78.653 L 177.806 78.933 C 177.806 79.686 177.646 80.28 177.326 80.713 C 177.006 81.146 176.459 81.363 175.686 81.363 Z M 174.856 76.373 L 174.856 76.773 L 176.456 76.773 L 176.456 76.103 C 176.456 75.79 176.439 75.526 176.406 75.313 C 176.373 75.1 176.299 74.94 176.186 74.833 C 176.079 74.726 175.909 74.673 175.676 74.673 C 175.449 74.673 175.279 74.723 175.166 74.823 C 175.046 74.93 174.966 75.106 174.926 75.353 C 174.879 75.6 174.856 75.94 174.856 76.373 ZM 180.429 81.363 C 180.136 81.363 179.876 81.28 179.649 81.113 C 179.429 80.946 179.252 80.73 179.119 80.463 C 178.992 80.196 178.929 79.916 178.929 79.623 C 178.929 79.156 179.006 78.763 179.159 78.443 C 179.312 78.123 179.526 77.853 179.799 77.633 C 180.072 77.406 180.389 77.213 180.749 77.053 C 181.109 76.886 181.489 76.726 181.889 76.573 L 181.889 76.033 C 181.889 75.733 181.872 75.483 181.839 75.283 C 181.806 75.083 181.732 74.933 181.619 74.833 C 181.512 74.733 181.352 74.683 181.139 74.683 C 180.946 74.683 180.789 74.726 180.669 74.813 C 180.556 74.9 180.472 75.023 180.419 75.183 C 180.366 75.343 180.339 75.533 180.339 75.753 L 180.339 76.123 L 178.969 76.073 C 178.982 75.24 179.172 74.626 179.539 74.233 C 179.899 73.84 180.462 73.643 181.229 73.643 C 181.976 73.643 182.502 73.846 182.809 74.253 C 183.122 74.66 183.279 75.25 183.279 76.023 L 183.279 79.453 C 183.279 79.686 183.286 79.913 183.299 80.133 C 183.312 80.346 183.329 80.546 183.349 80.733 C 183.376 80.92 183.396 81.096 183.409 81.263 L 182.139 81.263 C 182.112 81.123 182.079 80.946 182.039 80.733 C 181.999 80.52 181.972 80.326 181.959 80.153 C 181.872 80.453 181.702 80.73 181.449 80.983 C 181.202 81.236 180.862 81.363 180.429 81.363 Z M 180.979 80.173 C 181.119 80.173 181.249 80.133 181.369 80.053 C 181.489 79.973 181.599 79.883 181.699 79.783 C 181.792 79.683 181.856 79.603 181.889 79.543 L 181.889 77.413 C 181.676 77.533 181.472 77.656 181.279 77.783 C 181.086 77.903 180.919 78.03 180.779 78.163 C 180.632 78.296 180.519 78.446 180.439 78.613 C 180.359 78.786 180.319 78.98 180.319 79.193 C 180.319 79.5 180.376 79.74 180.489 79.913 C 180.602 80.086 180.766 80.173 180.979 80.173 ZM 186.513 81.363 C 186.126 81.363 185.813 81.29 185.573 81.143 C 185.333 80.996 185.16 80.79 185.053 80.523 C 184.946 80.256 184.893 79.94 184.893 79.573 L 184.893 74.673 L 184.103 74.673 L 184.103 73.753 L 184.893 73.753 L 184.893 71.553 L 186.283 71.553 L 186.283 73.753 L 187.493 73.753 L 187.493 74.673 L 186.283 74.673 L 186.283 79.483 C 186.283 79.776 186.33 79.986 186.423 80.113 C 186.523 80.24 186.706 80.303 186.973 80.303 C 187.04 80.303 187.12 80.296 187.213 80.283 C 187.306 80.276 187.396 80.27 187.483 80.263 L 187.483 81.293 C 187.31 81.32 187.15 81.336 187.003 81.343 C 186.85 81.356 186.686 81.363 186.513 81.363 ZM 189.997 81.263 L 188.607 81.263 L 188.607 73.753 L 189.997 73.753 L 189.997 81.263 Z M 189.997 72.633 L 188.607 72.633 L 188.607 71.173 L 189.997 71.173 L 189.997 72.633 ZM 194.174 81.263 L 192.474 81.263 L 190.994 73.753 L 192.394 73.753 L 193.314 79.793 L 194.254 73.753 L 195.604 73.753 L 194.174 81.263 ZM 198.579 81.363 C 197.992 81.363 197.539 81.25 197.219 81.023 C 196.899 80.79 196.676 80.453 196.549 80.013 C 196.422 79.566 196.359 79.016 196.359 78.363 L 196.359 76.643 C 196.359 75.976 196.422 75.423 196.549 74.983 C 196.682 74.543 196.912 74.21 197.239 73.983 C 197.559 73.756 198.006 73.643 198.579 73.643 C 199.212 73.643 199.679 73.773 199.979 74.033 C 200.279 74.293 200.476 74.67 200.569 75.163 C 200.662 75.65 200.709 76.236 200.709 76.923 L 200.709 77.533 L 197.749 77.533 L 197.749 79.043 C 197.749 79.343 197.776 79.59 197.829 79.783 C 197.889 79.97 197.982 80.11 198.109 80.203 C 198.236 80.296 198.399 80.343 198.599 80.343 C 198.806 80.343 198.962 80.293 199.069 80.193 C 199.176 80.093 199.249 79.95 199.289 79.763 C 199.329 79.576 199.349 79.356 199.349 79.103 L 199.349 78.653 L 200.699 78.653 L 200.699 78.933 C 200.699 79.686 200.539 80.28 200.219 80.713 C 199.899 81.146 199.352 81.363 198.579 81.363 Z M 197.749 76.373 L 197.749 76.773 L 199.349 76.773 L 199.349 76.103 C 199.349 75.79 199.332 75.526 199.299 75.313 C 199.266 75.1 199.192 74.94 199.079 74.833 C 198.972 74.726 198.802 74.673 198.569 74.673 C 198.342 74.673 198.172 74.723 198.059 74.823 C 197.939 74.93 197.859 75.106 197.819 75.353 C 197.772 75.6 197.749 75.94 197.749 76.373 ZM 207.549 81.383 C 206.942 81.383 206.439 81.253 206.039 80.993 C 205.632 80.733 205.326 80.373 205.119 79.913 C 204.912 79.453 204.792 78.92 204.759 78.313 L 206.059 77.963 C 206.086 78.336 206.142 78.696 206.229 79.043 C 206.322 79.39 206.472 79.673 206.679 79.893 C 206.886 80.113 207.176 80.223 207.549 80.223 C 207.929 80.223 208.219 80.116 208.419 79.903 C 208.612 79.69 208.709 79.383 208.709 78.983 C 208.709 78.51 208.599 78.126 208.379 77.833 C 208.166 77.546 207.896 77.256 207.569 76.963 L 205.799 75.403 C 205.452 75.096 205.196 74.763 205.029 74.403 C 204.862 74.043 204.779 73.6 204.779 73.073 C 204.779 72.3 205.002 71.703 205.449 71.283 C 205.889 70.856 206.489 70.643 207.249 70.643 C 207.669 70.643 208.036 70.696 208.349 70.803 C 208.669 70.91 208.932 71.076 209.139 71.303 C 209.352 71.53 209.522 71.813 209.649 72.153 C 209.776 72.5 209.862 72.903 209.909 73.363 L 208.659 73.693 C 208.632 73.346 208.579 73.03 208.499 72.743 C 208.419 72.45 208.282 72.216 208.089 72.043 C 207.896 71.863 207.616 71.773 207.249 71.773 C 206.889 71.773 206.606 71.87 206.399 72.063 C 206.199 72.256 206.099 72.546 206.099 72.933 C 206.099 73.253 206.152 73.516 206.259 73.723 C 206.366 73.93 206.542 74.143 206.789 74.363 L 208.569 75.923 C 208.962 76.27 209.312 76.683 209.619 77.163 C 209.919 77.643 210.069 78.213 210.069 78.873 C 210.069 79.393 209.962 79.84 209.749 80.213 C 209.529 80.593 209.232 80.883 208.859 81.083 C 208.479 81.283 208.042 81.383 207.549 81.383 ZM 213.098 81.363 C 212.711 81.363 212.398 81.29 212.158 81.143 C 211.918 80.996 211.745 80.79 211.638 80.523 C 211.531 80.256 211.478 79.94 211.478 79.573 L 211.478 74.673 L 210.688 74.673 L 210.688 73.753 L 211.478 73.753 L 211.478 71.553 L 212.868 71.553 L 212.868 73.753 L 214.078 73.753 L 214.078 74.673 L 212.868 74.673 L 212.868 79.483 C 212.868 79.776 212.915 79.986 213.008 80.113 C 213.108 80.24 213.291 80.303 213.558 80.303 C 213.625 80.303 213.705 80.296 213.798 80.283 C 213.891 80.276 213.981 80.27 214.068 80.263 L 214.068 81.293 C 213.895 81.32 213.735 81.336 213.588 81.343 C 213.435 81.356 213.271 81.363 213.098 81.363 ZM 216.182 81.363 C 215.889 81.363 215.659 81.286 215.492 81.133 C 215.332 80.98 215.219 80.783 215.152 80.543 C 215.085 80.31 215.052 80.073 215.052 79.833 L 215.052 73.753 L 216.442 73.753 L 216.442 79.413 C 216.442 79.686 216.482 79.896 216.562 80.043 C 216.642 80.196 216.802 80.273 217.042 80.273 C 217.195 80.273 217.359 80.23 217.532 80.143 C 217.699 80.05 217.859 79.936 218.012 79.803 L 218.012 73.753 L 219.412 73.753 L 219.412 81.263 L 218.012 81.263 L 218.012 80.523 C 217.772 80.756 217.499 80.956 217.192 81.123 C 216.885 81.283 216.549 81.363 216.182 81.363 ZM 222.662 81.263 L 221.262 81.263 L 221.262 74.773 L 220.372 74.773 L 220.372 73.753 L 221.262 73.753 L 221.262 73.363 C 221.262 72.89 221.299 72.486 221.372 72.153 C 221.452 71.82 221.609 71.563 221.842 71.383 C 222.075 71.203 222.425 71.113 222.892 71.113 C 223.065 71.113 223.219 71.12 223.352 71.133 C 223.485 71.146 223.635 71.17 223.802 71.203 L 223.802 72.213 C 223.722 72.2 223.635 72.186 223.542 72.173 C 223.449 72.16 223.362 72.153 223.282 72.153 C 223.015 72.153 222.845 72.24 222.772 72.413 C 222.699 72.593 222.662 72.83 222.662 73.123 L 222.662 73.753 L 223.802 73.753 L 223.802 74.773 L 222.662 74.773 L 222.662 81.263 ZM 226.133 81.263 L 224.733 81.263 L 224.733 74.773 L 223.843 74.773 L 223.843 73.753 L 224.733 73.753 L 224.733 73.363 C 224.733 72.89 224.77 72.486 224.843 72.153 C 224.923 71.82 225.08 71.563 225.313 71.383 C 225.546 71.203 225.896 71.113 226.363 71.113 C 226.536 71.113 226.69 71.12 226.823 71.133 C 226.956 71.146 227.106 71.17 227.273 71.203 L 227.273 72.213 C 227.193 72.2 227.106 72.186 227.013 72.173 C 226.92 72.16 226.833 72.153 226.753 72.153 C 226.486 72.153 226.316 72.24 226.243 72.413 C 226.17 72.593 226.133 72.83 226.133 73.123 L 226.133 73.753 L 227.273 73.753 L 227.273 74.773 L 226.133 74.773 L 226.133 81.263 ZM 229.094 81.263 L 227.704 81.263 L 227.704 79.713 L 229.094 79.713 L 229.094 81.263 ZM 235.785 81.383 C 235.178 81.383 234.675 81.253 234.275 80.993 C 233.868 80.733 233.562 80.373 233.355 79.913 C 233.148 79.453 233.028 78.92 232.995 78.313 L 234.295 77.963 C 234.322 78.336 234.378 78.696 234.465 79.043 C 234.558 79.39 234.708 79.673 234.915 79.893 C 235.122 80.113 235.412 80.223 235.785 80.223 C 236.165 80.223 236.455 80.116 236.655 79.903 C 236.848 79.69 236.945 79.383 236.945 78.983 C 236.945 78.51 236.835 78.126 236.615 77.833 C 236.402 77.546 236.132 77.256 235.805 76.963 L 234.035 75.403 C 233.688 75.096 233.432 74.763 233.265 74.403 C 233.098 74.043 233.015 73.6 233.015 73.073 C 233.015 72.3 233.238 71.703 233.685 71.283 C 234.125 70.856 234.725 70.643 235.485 70.643 C 235.905 70.643 236.272 70.696 236.585 70.803 C 236.905 70.91 237.168 71.076 237.375 71.303 C 237.588 71.53 237.758 71.813 237.885 72.153 C 238.012 72.5 238.098 72.903 238.145 73.363 L 236.895 73.693 C 236.868 73.346 236.815 73.03 236.735 72.743 C 236.655 72.45 236.518 72.216 236.325 72.043 C 236.132 71.863 235.852 71.773 235.485 71.773 C 235.125 71.773 234.842 71.87 234.635 72.063 C 234.435 72.256 234.335 72.546 234.335 72.933 C 234.335 73.253 234.388 73.516 234.495 73.723 C 234.602 73.93 234.778 74.143 235.025 74.363 L 236.805 75.923 C 237.198 76.27 237.548 76.683 237.855 77.163 C 238.155 77.643 238.305 78.213 238.305 78.873 C 238.305 79.393 238.198 79.84 237.985 80.213 C 237.765 80.593 237.468 80.883 237.095 81.083 C 236.715 81.283 236.278 81.383 235.785 81.383 ZM 241.334 81.363 C 240.947 81.363 240.634 81.29 240.394 81.143 C 240.154 80.996 239.981 80.79 239.874 80.523 C 239.767 80.256 239.714 79.94 239.714 79.573 L 239.714 74.673 L 238.924 74.673 L 238.924 73.753 L 239.714 73.753 L 239.714 71.553 L 241.104 71.553 L 241.104 73.753 L 242.314 73.753 L 242.314 74.673 L 241.104 74.673 L 241.104 79.483 C 241.104 79.776 241.151 79.986 241.244 80.113 C 241.344 80.24 241.527 80.303 241.794 80.303 C 241.861 80.303 241.941 80.296 242.034 80.283 C 242.127 80.276 242.217 80.27 242.304 80.263 L 242.304 81.293 C 242.131 81.32 241.971 81.336 241.824 81.343 C 241.671 81.356 241.507 81.363 241.334 81.363 ZM 244.418 81.363 C 244.125 81.363 243.895 81.286 243.728 81.133 C 243.568 80.98 243.455 80.783 243.388 80.543 C 243.321 80.31 243.288 80.073 243.288 79.833 L 243.288 73.753 L 244.678 73.753 L 244.678 79.413 C 244.678 79.686 244.718 79.896 244.798 80.043 C 244.878 80.196 245.038 80.273 245.278 80.273 C 245.431 80.273 245.595 80.23 245.768 80.143 C 245.935 80.05 246.095 79.936 246.248 79.803 L 246.248 73.753 L 247.648 73.753 L 247.648 81.263 L 246.248 81.263 L 246.248 80.523 C 246.008 80.756 245.735 80.956 245.428 81.123 C 245.121 81.283 244.785 81.363 244.418 81.363 ZM 250.898 81.263 L 249.498 81.263 L 249.498 74.773 L 248.608 74.773 L 248.608 73.753 L 249.498 73.753 L 249.498 73.363 C 249.498 72.89 249.535 72.486 249.608 72.153 C 249.688 71.82 249.845 71.563 250.078 71.383 C 250.311 71.203 250.661 71.113 251.128 71.113 C 251.301 71.113 251.455 71.12 251.588 71.133 C 251.721 71.146 251.871 71.17 252.038 71.203 L 252.038 72.213 C 251.958 72.2 251.871 72.186 251.778 72.173 C 251.685 72.16 251.598 72.153 251.518 72.153 C 251.251 72.153 251.081 72.24 251.008 72.413 C 250.935 72.593 250.898 72.83 250.898 73.123 L 250.898 73.753 L 252.038 73.753 L 252.038 74.773 L 250.898 74.773 L 250.898 81.263 ZM 254.369 81.263 L 252.969 81.263 L 252.969 74.773 L 252.079 74.773 L 252.079 73.753 L 252.969 73.753 L 252.969 73.363 C 252.969 72.89 253.006 72.486 253.079 72.153 C 253.159 71.82 253.316 71.563 253.549 71.383 C 253.782 71.203 254.132 71.113 254.599 71.113 C 254.772 71.113 254.926 71.12 255.059 71.133 C 255.192 71.146 255.342 71.17 255.509 71.203 L 255.509 72.213 C 255.429 72.2 255.342 72.186 255.249 72.173 C 255.156 72.16 255.069 72.153 254.989 72.153 C 254.722 72.153 254.552 72.24 254.479 72.413 C 254.406 72.593 254.369 72.83 254.369 73.123 L 254.369 73.753 L 255.509 73.753 L 255.509 74.773 L 254.369 74.773 L 254.369 81.263 ZM 257.33 81.263 L 255.94 81.263 L 255.94 79.713 L 257.33 79.713 L 257.33 81.263 Z" transform="matrix(1, 0, 0, 1, 0, 0)" style="fill: rgb(255, 255, 255); white-space: pre;"/>
</svg>